<svg xmlns="http://www.w3.org/2000/svg" xmlns:xlink="http://www.w3.org/1999/xlink" width="512" zoomAndPan="magnify" viewBox="0 0 384 383.999986" height="512" preserveAspectRatio="xMidYMid meet" version="1.0"><defs><clipPath id="f39d9a5686"><path d="M 27.550781 28.785156 L 263 28.785156 L 263 264 L 27.550781 264 Z M 27.550781 28.785156 " clip-rule="nonzero"/></clipPath><clipPath id="0cf90c295d"><path d="M 253 253 L 355 253 L 355 355.035156 L 253 355.035156 Z M 253 253 " clip-rule="nonzero"/></clipPath><clipPath id="8332258bf9"><path d="M 98.09375 89 L 202 89 L 202 222.710938 L 98.09375 222.710938 Z M 98.09375 89 " clip-rule="nonzero"/></clipPath><clipPath id="d900750991"><path d="M 180 160 L 209 160 L 209 222.710938 L 180 222.710938 Z M 180 160 " clip-rule="nonzero"/></clipPath></defs><g clip-path="url(#f39d9a5686)"><path fill="#ffffff" d="M 145.285156 28.804688 C 80.523438 28.804688 27.84375 81.402344 27.84375 146.058594 C 27.84375 210.714844 80.523438 263.308594 145.285156 263.308594 C 210.042969 263.308594 262.726562 210.714844 262.726562 146.058594 C 262.726562 81.402344 210.042969 28.804688 145.285156 28.804688 Z M 145.285156 244.882812 C 90.703125 244.882812 46.296875 200.550781 46.296875 146.058594 C 46.296875 91.566406 90.703125 47.230469 145.285156 47.230469 C 199.863281 47.230469 244.269531 91.566406 244.269531 146.058594 C 244.269531 200.550781 199.863281 244.882812 145.285156 244.882812 Z M 145.285156 244.882812 " fill-opacity="1" fill-rule="nonzero"/></g><path fill="#ffffff" d="M 262.941406 247.097656 L 242.210938 226.398438 C 237.0625 232.582031 231.332031 238.265625 225.105469 243.367188 L 246.160156 264.386719 C 247.492188 260.566406 249.6875 256.976562 252.738281 253.929688 L 253.328125 253.34375 C 256.105469 250.570312 259.375 248.46875 262.941406 247.097656 Z M 262.941406 247.097656 " fill-opacity="1" fill-rule="nonzero"/><g clip-path="url(#0cf90c295d)"><path fill="#ffffff" d="M 286.582031 259.410156 C 282.972656 255.804688 278.148438 253.820312 272.996094 253.820312 C 267.84375 253.820312 263.019531 255.804688 259.40625 259.410156 L 258.820312 260 C 255.207031 263.605469 253.21875 268.421875 253.21875 273.566406 C 253.21875 278.707031 255.207031 283.527344 258.820312 287.132812 L 321.28125 349.496094 C 324.894531 353.097656 329.71875 355.085938 334.871094 355.085938 C 340.019531 355.085938 344.847656 353.097656 348.460938 349.496094 L 349.046875 348.90625 C 356.539062 341.425781 356.539062 329.253906 349.046875 321.773438 Z M 286.582031 259.410156 " fill-opacity="1" fill-rule="nonzero"/></g><path fill="#ffffff" d="M 138.761719 94.226562 C 139.332031 94.054688 139.898438 93.855469 140.453125 93.625 C 141.003906 93.394531 141.546875 93.140625 142.074219 92.859375 C 142.605469 92.578125 143.117188 92.269531 143.617188 91.9375 C 144.117188 91.605469 144.597656 91.246094 145.0625 90.867188 C 145.523438 90.488281 145.96875 90.085938 146.390625 89.664062 C 146.816406 89.238281 147.21875 88.796875 147.601562 88.332031 C 147.980469 87.871094 148.335938 87.390625 148.671875 86.890625 C 149.003906 86.394531 149.3125 85.878906 149.597656 85.351562 C 149.878906 84.824219 150.136719 84.28125 150.367188 83.726562 C 150.59375 83.175781 150.796875 82.609375 150.972656 82.035156 C 151.148438 81.464844 151.292969 80.882812 151.410156 80.292969 C 151.527344 79.707031 151.617188 79.113281 151.675781 78.519531 C 151.734375 77.921875 151.765625 77.324219 151.765625 76.722656 C 151.765625 76.125 151.738281 75.527344 151.679688 74.929688 C 151.621094 74.332031 151.535156 73.738281 151.417969 73.152344 C 151.300781 72.5625 151.15625 71.984375 150.984375 71.410156 C 150.808594 70.835938 150.609375 70.269531 150.378906 69.714844 C 150.152344 69.164062 149.894531 68.621094 149.613281 68.09375 C 149.332031 67.5625 149.023438 67.046875 148.691406 66.550781 C 148.359375 66.050781 148.003906 65.570312 147.625 65.105469 C 147.246094 64.640625 146.84375 64.199219 146.417969 63.773438 C 145.996094 63.347656 145.554688 62.945312 145.089844 62.566406 C 144.628906 62.183594 144.148438 61.828125 143.648438 61.492188 C 143.152344 61.160156 142.636719 60.851562 142.109375 60.570312 C 141.582031 60.285156 141.039062 60.027344 140.488281 59.800781 C 139.933594 59.570312 139.371094 59.367188 138.796875 59.191406 C 138.222656 59.015625 137.644531 58.871094 137.054688 58.753906 C 136.46875 58.636719 135.875 58.546875 135.28125 58.488281 C 134.683594 58.429688 134.085938 58.398438 133.484375 58.398438 C 132.886719 58.398438 132.289062 58.425781 131.691406 58.484375 C 131.097656 58.542969 130.503906 58.628906 129.914062 58.746094 C 129.328125 58.863281 128.746094 59.007812 128.171875 59.179688 C 127.601562 59.355469 127.035156 59.554688 126.480469 59.785156 C 125.929688 60.011719 125.386719 60.269531 124.859375 60.550781 C 124.328125 60.832031 123.816406 61.140625 123.316406 61.472656 C 122.816406 61.804688 122.335938 62.160156 121.875 62.542969 C 121.410156 62.921875 120.964844 63.324219 120.542969 63.746094 C 120.117188 64.167969 119.714844 64.613281 119.332031 65.074219 C 118.953125 65.539062 118.597656 66.019531 118.261719 66.519531 C 117.929688 67.015625 117.621094 67.527344 117.335938 68.058594 C 117.054688 68.585938 116.796875 69.128906 116.570312 69.679688 C 116.339844 70.234375 116.136719 70.796875 115.960938 71.371094 C 115.785156 71.945312 115.640625 72.527344 115.523438 73.113281 C 115.40625 73.703125 115.316406 74.292969 115.257812 74.890625 C 115.199219 75.488281 115.167969 76.085938 115.167969 76.683594 C 115.167969 77.285156 115.195312 77.882812 115.253906 78.480469 C 115.3125 79.078125 115.398438 79.667969 115.515625 80.257812 C 115.632812 80.84375 115.777344 81.425781 115.949219 82 C 116.125 82.574219 116.324219 83.136719 116.554688 83.691406 C 116.78125 84.246094 117.039062 84.789062 117.320312 85.316406 C 117.601562 85.847656 117.910156 86.359375 118.242188 86.859375 C 118.574219 87.359375 118.929688 87.839844 119.308594 88.304688 C 119.6875 88.765625 120.089844 89.210938 120.515625 89.636719 C 120.9375 90.058594 121.378906 90.460938 121.84375 90.84375 C 122.304688 91.222656 122.785156 91.582031 123.285156 91.914062 C 123.78125 92.25 124.296875 92.558594 124.824219 92.839844 C 125.351562 93.125 125.894531 93.378906 126.445312 93.609375 C 127 93.839844 127.5625 94.042969 128.136719 94.21875 C 128.710938 94.390625 129.289062 94.539062 129.878906 94.65625 C 130.464844 94.773438 131.058594 94.863281 131.652344 94.921875 C 132.25 94.980469 132.847656 95.011719 133.449219 95.011719 C 134.046875 95.011719 134.644531 94.984375 135.242188 94.925781 C 135.835938 94.867188 136.429688 94.777344 137.019531 94.664062 C 137.605469 94.546875 138.1875 94.402344 138.761719 94.226562 Z M 138.761719 94.226562 " fill-opacity="1" fill-rule="nonzero"/><g clip-path="url(#8332258bf9)"><path fill="#ffffff" d="M 198.171875 154.109375 L 198.167969 153.992188 C 198.625 153.359375 199.023438 152.695312 199.367188 151.992188 C 200.1875 150.847656 200.710938 149.582031 200.945312 148.195312 C 201.179688 146.808594 201.097656 145.4375 200.703125 144.089844 C 200.019531 124.359375 194.5625 109.503906 184.449219 99.945312 C 173.6875 89.777344 161.976562 89.671875 159.75 89.742188 C 158.847656 89.773438 157.957031 89.894531 157.078125 90.101562 C 156.199219 90.308594 155.351562 90.601562 154.53125 90.976562 C 153.707031 91.351562 152.929688 91.804688 152.199219 92.332031 C 151.46875 92.859375 150.792969 93.457031 150.179688 94.117188 C 149.5625 94.777344 149.019531 95.492188 148.542969 96.261719 C 148.070312 97.03125 147.675781 97.835938 147.359375 98.683594 C 147.042969 99.53125 146.8125 100.398438 146.667969 101.289062 C 146.523438 102.179688 146.46875 103.078125 146.5 103.980469 C 146.511719 104.300781 146.550781 104.613281 146.582031 104.925781 L 139.738281 122.183594 L 113.664062 134.6875 C 112.992188 135.007812 112.378906 135.417969 111.820312 135.910156 C 111.265625 136.402344 110.785156 136.964844 110.382812 137.589844 C 109.980469 138.21875 109.671875 138.890625 109.457031 139.601562 C 109.242188 140.316406 109.128906 141.042969 109.117188 141.789062 C 108.3125 142.09375 107.535156 142.457031 106.789062 142.878906 C 106.039062 143.300781 105.324219 143.777344 104.648438 144.308594 C 103.96875 144.839844 103.335938 145.417969 102.746094 146.042969 C 102.15625 146.667969 101.617188 147.335938 101.128906 148.042969 C 100.636719 148.75 100.203125 149.492188 99.828125 150.265625 C 99.449219 151.039062 99.132812 151.835938 98.875 152.65625 C 98.617188 153.476562 98.425781 154.3125 98.292969 155.164062 C 98.164062 156.011719 98.097656 156.867188 98.09375 157.730469 L 98.09375 218.9375 C 98.089844 219.402344 98.175781 219.847656 98.347656 220.273438 C 98.523438 220.703125 98.769531 221.082031 99.097656 221.410156 C 99.421875 221.738281 99.796875 221.992188 100.222656 222.167969 C 100.648438 222.347656 101.09375 222.4375 101.554688 222.4375 C 102.019531 222.4375 102.460938 222.347656 102.890625 222.167969 C 103.316406 221.992188 103.691406 221.738281 104.015625 221.410156 C 104.339844 221.082031 104.589844 220.703125 104.765625 220.273438 C 104.9375 219.847656 105.023438 219.402344 105.019531 218.9375 L 105.019531 157.730469 C 105.019531 156.660156 105.1875 155.621094 105.515625 154.601562 C 105.847656 153.585938 106.324219 152.648438 106.953125 151.78125 C 107.582031 150.917969 108.324219 150.171875 109.1875 149.542969 C 110.050781 148.914062 110.988281 148.429688 112.003906 148.097656 C 112.589844 148.585938 113.234375 148.984375 113.9375 149.289062 C 114.640625 149.59375 115.371094 149.792969 116.128906 149.886719 C 116.886719 149.984375 117.644531 149.96875 118.398438 149.847656 C 119.152344 149.726562 119.875 149.5 120.566406 149.171875 C 121.289062 149.628906 121.941406 150.167969 122.527344 150.789062 C 123.113281 151.410156 123.613281 152.097656 124.027344 152.84375 C 124.4375 153.59375 124.753906 154.378906 124.964844 155.207031 C 125.179688 156.035156 125.285156 156.875 125.289062 157.730469 C 125.292969 158.1875 125.382812 158.625 125.558594 159.042969 C 125.738281 159.464844 125.988281 159.835938 126.3125 160.15625 C 126.636719 160.476562 127.011719 160.726562 127.433594 160.898438 C 127.855469 161.074219 128.292969 161.160156 128.75 161.160156 C 129.207031 161.160156 129.644531 161.074219 130.066406 160.898438 C 130.488281 160.726562 130.863281 160.476562 131.1875 160.15625 C 131.511719 159.835938 131.761719 159.464844 131.9375 159.042969 C 132.117188 158.625 132.207031 158.1875 132.210938 157.730469 C 132.210938 155.519531 131.796875 153.390625 130.964844 151.34375 C 130.136719 149.292969 128.953125 147.476562 127.414062 145.890625 L 149.503906 135.300781 C 150.410156 134.863281 151.210938 134.273438 151.898438 133.535156 C 152.589844 132.796875 153.117188 131.960938 153.492188 131.019531 L 158.980469 117.175781 C 159.5625 117.234375 160.144531 117.253906 160.730469 117.238281 C 162.578125 117.722656 164.1875 118.628906 165.566406 119.949219 C 170.265625 124.390625 173 133.734375 173.265625 146.265625 C 173.3125 148.480469 173.863281 150.558594 174.917969 152.507812 L 157.058594 173.515625 C 156.355469 174.347656 155.8125 175.269531 155.4375 176.292969 C 155.0625 177.316406 154.875 178.371094 154.875 179.457031 L 154.875 212.816406 C 154.875 213.417969 154.933594 214.015625 155.050781 214.605469 C 155.167969 215.195312 155.34375 215.769531 155.574219 216.328125 C 155.804688 216.882812 156.085938 217.410156 156.421875 217.910156 C 156.753906 218.414062 157.136719 218.875 157.5625 219.300781 C 157.984375 219.726562 158.449219 220.105469 158.949219 220.441406 C 159.449219 220.777344 159.976562 221.058594 160.535156 221.289062 C 161.089844 221.519531 161.664062 221.695312 162.253906 221.8125 C 162.84375 221.929688 163.441406 221.988281 164.042969 221.988281 C 164.644531 221.988281 165.242188 221.929688 165.832031 221.8125 C 166.421875 221.695312 166.996094 221.519531 167.550781 221.289062 C 168.105469 221.058594 168.636719 220.777344 169.136719 220.441406 C 169.636719 220.109375 170.097656 219.726562 170.523438 219.300781 C 170.949219 218.875 171.332031 218.414062 171.664062 217.910156 C 172 217.410156 172.28125 216.882812 172.511719 216.328125 C 172.742188 215.769531 172.914062 215.195312 173.035156 214.605469 C 173.152344 214.015625 173.210938 213.417969 173.210938 212.816406 L 173.210938 182.828125 L 177.410156 177.886719 L 180.25 174.546875 L 180.90625 173.773438 Z M 198.171875 154.109375 " fill-opacity="1" fill-rule="nonzero"/></g><g clip-path="url(#d900750991)"><path fill="#ffffff" d="M 208.132812 210.226562 L 198.660156 178.042969 L 198.296875 160.265625 L 180.835938 180.152344 C 180.714844 180.285156 180.582031 180.402344 180.429688 180.5 C 180.484375 181.023438 180.582031 181.539062 180.726562 182.046875 L 190.542969 215.40625 C 190.710938 215.984375 190.933594 216.542969 191.214844 217.078125 C 191.492188 217.613281 191.820312 218.117188 192.199219 218.585938 C 192.574219 219.058594 192.996094 219.484375 193.457031 219.875 C 193.921875 220.261719 194.414062 220.601562 194.945312 220.890625 C 195.472656 221.179688 196.027344 221.414062 196.601562 221.59375 C 197.175781 221.777344 197.765625 221.898438 198.363281 221.960938 C 198.964844 222.027344 199.5625 222.03125 200.164062 221.980469 C 200.765625 221.925781 201.355469 221.8125 201.933594 221.640625 C 202.511719 221.472656 203.070312 221.246094 203.601562 220.964844 C 204.136719 220.6875 204.640625 220.355469 205.109375 219.976562 C 205.578125 219.597656 206.003906 219.175781 206.390625 218.710938 C 206.777344 218.25 207.113281 217.75 207.402344 217.222656 C 207.6875 216.691406 207.921875 216.136719 208.101562 215.5625 C 208.28125 214.984375 208.398438 214.398438 208.464844 213.796875 C 208.527344 213.195312 208.527344 212.597656 208.472656 211.996094 C 208.417969 211.394531 208.304688 210.804688 208.132812 210.226562 Z M 208.132812 210.226562 " fill-opacity="1" fill-rule="nonzero"/></g></svg>